<?xml version="1.0" encoding="UTF-8"?>
<svg xmlns="http://www.w3.org/2000/svg" xmlns:xlink="http://www.w3.org/1999/xlink" version="1.1" viewBox="0 0 598.7 115.2">
  <defs>
    <radialGradient id="bg-unikraft-rd" cx="1523.4" cy="283.4" fx="1505" fy="283.4" r="135.1" gradientTransform="translate(-188.1 -553.7) rotate(52) scale(.4 .7)" gradientUnits="userSpaceOnUse">
      <stop offset="0" stop-color="#0059e9"/><stop offset="1" stop-color="#00a2f6"/>
    </radialGradient>
    <linearGradient id="bg-unikraft-lg" x1="74.8" y1="795.9" x2="73.4" y2="717.4" gradientTransform="translate(0 -717.2)" gradientUnits="userSpaceOnUse">
      <stop offset=".2" stop-color="#0094f1"/><stop offset=".5" stop-color="#0094ff"/><stop offset=".7" stop-color="#00d9fd"/><stop offset="1" stop-color="#00e8ce"/>
    </linearGradient>
  </defs>
  <g>
    <g>
      <path class="cls-3" fill="url(#bg-unikraft-rd)" stroke-width="0" d="M102.3,81.2h-28.2c-.4,0-.7.2-.9.6-1.2,2.3-3.7,3.9-6.5,3.9h-29.8c-4.1,0-7.4-3.3-7.4-7.4v-41.3c0-4.1-3.3-7.4-7.4-7.4H7.4c-4.1,0-7.4,3.3-7.4,7.4v41.3c0,20.4,16.5,36.9,36.9,36.9h29.8c19,0,34.6-14.4,36.7-32.8.1-.6-.4-1.2-1-1.2h0Z"/>
      <path fill="url(#bg-unikraft-lg)" stroke-width="0" fill-rule="evenodd" d="M101,4.4c.9,0,1.3-1,.8-1.6-1.4-1.7-3.4-2.8-5.8-2.8h-14.8c-2.3,0-4.4,1.1-5.8,2.8-.5.7,0,1.6.8,1.6h24.8ZM101.3,73.9h-25.4c-1.2,0-2.1.9-2.1,2.1v.2c0,1.2.9,2.1,2.1,2.1h25.4c1.2,0,2.1-.9,2.1-2.1v-.2c0-1.2-.9-2.1-2.1-2.1ZM101,22.2c.9,0,1.3,1,.8,1.6-1.4,1.7-3.4,2.8-5.8,2.8h-24.1c-.6,0-1-.4-1-1h0c0-.3.1-.6.4-.7.7-.6,1.3-1.3,1.7-2.2.2-.3.5-.6.9-.6h27.1c0,0,0,0,0,0ZM76.5,31.3c-.7.6-1.3,1.3-1.7,2.2-.2.3-.5.6-.9.6h-27.2c-.9,0-1.3-1-.8-1.6,1.4-1.7,3.4-2.8,5.8-2.8h24.1c.6,0,1,.4,1,1h0c0,.2,0,.5-.3.7h0ZM76.9,55.1c0,.6-.4,1-1,1h-24.1c-2.3,0-4.4-1.1-5.8-2.8-.5-.7,0-1.6.8-1.6h27.2c.4,0,.7.2.9.6.4.8,1,1.5,1.7,2.2.2.1.3.4.3.7h0ZM101,63.5h-27.2c-.4,0-.7-.2-.9-.6-.4-.8-1-1.5-1.7-2.2-.2-.2-.4-.5-.4-.7h0c0-.6.4-1,1-1h24.1c2.3,0,4.4,1.1,5.8,2.8.6.7.1,1.7-.7,1.7h0ZM101.3,66.5h-25.4c-1.2,0-2.1.9-2.1,2.1v.2c0,1.2.9,2.1,2.1,2.1h25.4c1.2,0,2.1-.9,2.1-2.1v-.2c0-1.2-.9-2.1-2.1-2.1ZM71.8,44.3h-25.4c-1.2,0-2.1.9-2.1,2.1v.2c0,1.2.9,2.1,2.1,2.1h25.4c1.2,0,2.1-.9,2.1-2.1v-.2c0-1.2-1-2.1-2.1-2.1ZM71.8,36.9h-25.4c-1.2,0-2.1.9-2.1,2.1v.2c0,1.2.9,2.1,2.1,2.1h25.4c1.2,0,2.1-.9,2.1-2.1v-.2c0-1.1-1-2.1-2.1-2.1ZM101.3,14.8h-25.4c-1.2,0-2.1.9-2.1,2.1v.2c0,1.2.9,2.1,2.1,2.1h25.4c1.2,0,2.1-.9,2.1-2.1v-.2c0-1.2-.9-2.1-2.1-2.1ZM101.3,7.4h-25.4c-1.2,0-2.1.9-2.1,2.1v.2c0,1.2.9,2.1,2.1,2.1h25.4c1.2,0,2.1-.9,2.1-2.1v-.2c0-1.2-.9-2.1-2.1-2.1Z"/>
    </g>
    <g class="cls-5" opacity="0.2">
      <path class="cls-4" fill="#dbeafe" d="M22.2,30.8c3.4,0,6.2,2.8,6.2,6.2v41.3c0,4.7,3.9,8.6,8.6,8.6h29.8c3.1,0,6-1.7,7.5-4.4h27.9c-2.1,18-17.3,31.5-35.4,31.5h-29.8c-19.6,0-35.7-16-35.7-35.7v-41.3c0-3.4,2.8-6.2,6.2-6.2h14.8M22.3,29.6H7.5C3.4,29.6,0,32.9,0,37v41.3c0,20.4,16.5,36.9,36.9,36.9h29.8c19,0,34.6-14.4,36.7-32.8,0-.6-.4-1.2-1-1.2h-28.2c-.4,0-.7.2-.9.6-1.2,2.3-3.7,3.9-6.5,3.9h-29.8c-4.1,0-7.4-3.3-7.4-7.4v-41.3c0-4.1-3.3-7.4-7.3-7.4h0Z"/>
      <path class="cls-4" fill="#dbeafe" d="M96,1.2c1.7,0,3.3.7,4.5,2h-23.8c1.2-1.2,2.8-2,4.5-2h14.8M76,7.4v1.2h25.4c.5,0,.9.4.9.9v.2c0,.5-.4.9-.9.9h-25.4c-.5,0-.9-.4-.9-.9v-.2c0-.5.4-.9.9-.9v-1.2M101.3,16c.5,0,.9.4.9.9v.2c0,.5-.4.9-.9.9h-25.4c-.5,0-.9-.4-.9-.9v-.2c0-.5.4-.9.9-.9h25.4M100.5,23.4c-1.2,1.2-2.8,2-4.5,2h-23.5c.6-.6,1.1-1.2,1.5-2h26.5M51.7,29.5v1.2h23.5c-.6.6-1.1,1.2-1.5,2h-26.5c1.2-1.2,2.8-2,4.5-2v-1.2M71.8,38.1c.5,0,.9.4.9.9v.2c0,.5-.4.9-.9.9h-25.4c-.5,0-.9-.4-.9-.9v-.2c0-.5.4-.9.9-.9h25.4M46.4,44.3v1.2h25.4c.5,0,.9.4.9.9v.2c0,.5-.4.9-.9.9h-25.4c-.5,0-.9-.4-.9-.9v-.2c0-.5.4-.9.9-.9v-1.2M47.2,52.9h26.5c.4.7.9,1.4,1.5,2h-23.5c-1.7,0-3.3-.7-4.4-2M72.5,60.3h23.5c1.7,0,3.3.7,4.5,2h-26.5c-.5-.7-1-1.4-1.5-2M101.3,67.7c.5,0,.9.4.9.9v.2c0,.5-.4.9-.9.9h-25.4c-.5,0-.9-.4-.9-.9v-.2c0-.5.4-.9.9-.9h25.4M76,73.9v1.2h25.4c.5,0,.9.4.9.9v.2c0,.5-.4.9-.9.9h-25.4c-.5,0-.9-.4-.9-.9v-.2c0-.5.4-.9.9-.9v-1.2M96,0h-14.8c-2.3,0-4.4,1.1-5.8,2.8-.5.7,0,1.6.8,1.6h24.8c.9,0,1.3-1,.8-1.6-1.4-1.7-3.4-2.8-5.8-2.8h0ZM76,7.4c-1.2,0-2.1.9-2.1,2.1v.2c0,1.2.9,2.1,2.1,2.1h25.4c1.2,0,2.1-.9,2.1-2.1v-.2c0-1.2-.9-2.1-2.1-2.1h-25.4ZM101.3,14.8h-25.4c-1.2,0-2.1.9-2.1,2.1v.2c0,1.2.9,2.1,2.1,2.1h25.4c1.2,0,2.1-.9,2.1-2.1v-.2c0-1.2-.9-2.1-2.1-2.1h0ZM101,22.2h-27.1c-.4,0-.7.2-.9.6-.4.8-1,1.5-1.7,2.2-.2.2-.4.5-.4.7h0c0,.6.4,1,1,1h24.1c2.3,0,4.4-1.1,5.8-2.8.6-.7,0-1.7-.8-1.7h0ZM51.7,29.5c-2.3,0-4.4,1.1-5.8,2.8-.5.7,0,1.6.8,1.6h27.2c.4,0,.7-.2.9-.6.4-.8,1-1.5,1.7-2.2.2-.2.4-.5.4-.7,0-.6-.4-1-1-1h-24.1c0,0,0,0,0,0ZM71.8,36.9h-25.4c-1.2,0-2.1.9-2.1,2.1v.2c0,1.2.9,2.1,2.1,2.1h25.4c1.2,0,2.1-.9,2.1-2.1v-.2c0-1.1-1-2.1-2.1-2.1h0ZM46.4,44.3c-1.2,0-2.1.9-2.1,2.1v.2c0,1.2.9,2.1,2.1,2.1h25.4c1.2,0,2.1-.9,2.1-2.1v-.2c0-1.2-.9-2.1-2.1-2.1h-25.4ZM46.7,51.7c-.9,0-1.3,1-.8,1.6,1.4,1.7,3.4,2.8,5.8,2.8h24.1c.6,0,1-.4,1-1h0c0-.3-.1-.6-.4-.7-.7-.6-1.3-1.3-1.7-2.2-.2-.3-.5-.6-.9-.6h-27.1ZM71.9,59.1c-.6,0-1,.4-1,1h0c0,.3.1.6.4.7.7.6,1.3,1.3,1.7,2.2.2.3.5.6.9.6h27.1c.9,0,1.3-1,.8-1.6-1.4-1.7-3.4-2.8-5.8-2.8h-24.1c0,0,0,0,0,0ZM101.3,66.5h-25.4c-1.2,0-2.1.9-2.1,2.1v.2c0,1.2.9,2.1,2.1,2.1h25.4c1.2,0,2.1-.9,2.1-2.1v-.2c0-1.2-.9-2.1-2.1-2.1h0ZM76,73.9c-1.2,0-2.1.9-2.1,2.1v.2c0,1.2.9,2.1,2.1,2.1h25.4c1.2,0,2.1-.9,2.1-2.1v-.2c0-1.2-.9-2.1-2.1-2.1h-25.4Z"/>
    </g>
  </g>
  <path fill="#dbeafe" stroke-width="0" d="M200.2,15.5h15.8v56.9c0,6.2-1.5,11.7-4.4,16.4-2.9,4.7-7,8.4-12.3,11.1-5.3,2.6-11.5,4-18.6,4s-13.3-1.3-18.6-4c-5.3-2.6-9.4-6.3-12.3-11.1-2.9-4.7-4.4-10.2-4.4-16.4V15.5h15.8v55.6c0,3.6.8,6.9,2.4,9.7,1.6,2.8,3.9,5.1,6.8,6.7s6.4,2.4,10.4,2.4,7.5-.8,10.4-2.4c2.9-1.6,5.2-3.8,6.8-6.7,1.6-2.8,2.4-6.1,2.4-9.7V15.5Z"/>
  <path fill="#dbeafe" stroke-width="0" d="M247.8,64.3v38.3h-15.4V37.3h14.7v11.1h.8c1.5-3.7,3.9-6.6,7.2-8.7,3.3-2.2,7.4-3.2,12.3-3.2s8.4,1,11.8,2.9c3.4,1.9,6,4.7,7.8,8.4,1.9,3.7,2.8,8.1,2.7,13.3v41.6h-15.4v-39.2c0-4.4-1.1-7.8-3.4-10.2-2.3-2.5-5.4-3.7-9.3-3.7s-5.1.6-7.2,1.8c-2.1,1.2-3.7,2.9-4.9,5.1-1.2,2.2-1.8,4.9-1.8,8Z"/>
  <path fill="#dbeafe" stroke-width="0" d="M313.2,28c-2.4,0-4.5-.8-6.3-2.4-1.8-1.6-2.6-3.6-2.6-5.9s.9-4.3,2.6-5.9c1.8-1.6,3.9-2.4,6.3-2.4s4.6.8,6.3,2.4c1.7,1.6,2.6,3.6,2.6,5.9s-.9,4.3-2.6,5.9c-1.7,1.6-3.8,2.4-6.3,2.4ZM305.4,102.6V37.3h15.4v65.3h-15.4Z"/>
  <path fill="#dbeafe" stroke-width="0" d="M336.6,102.6V15.5h15.4v87h-15.4ZM350.7,82.1v-18.6s2.4,0,2.4,0l23.5-26.2h18l-28.9,32.1h-3.2l-11.8,12.7ZM377.6,102.6l-21.3-29.7,10.4-10.8,29.3,40.5h-18.4Z"/>
  <path fill="#dbeafe" stroke-width="0" d="M404.7,102.6V37.3h14.9v10.9h.7c1.2-3.8,3.2-6.7,6.1-8.7s6.2-3.1,10-3.1,1.8,0,2.9.1c1.1,0,1.9.2,2.7.3v14.2c-.7-.2-1.7-.4-3.1-.6-1.4-.2-2.8-.3-4.1-.3-2.8,0-5.3.6-7.5,1.8-2.2,1.2-4,2.9-5.2,5-1.3,2.1-1.9,4.6-1.9,7.4v38.4h-15.4Z"/>
  <path fill="#dbeafe" stroke-width="0" d="M469.8,103.9c-4.1,0-7.9-.7-11.2-2.2s-5.9-3.7-7.8-6.6c-1.9-2.9-2.9-6.5-2.9-10.8s.7-6.7,2-9.1,3.2-4.3,5.6-5.8c2.4-1.4,5-2.5,8-3.3,3-.7,6-1.3,9.2-1.6,3.8-.4,6.9-.8,9.3-1.1,2.4-.3,4.1-.8,5.2-1.5,1.1-.7,1.6-1.8,1.6-3.3v-.3c0-3.2-.9-5.7-2.8-7.4-1.9-1.8-4.6-2.6-8.2-2.6s-6.8.8-8.9,2.5c-2.2,1.6-3.7,3.6-4.4,5.8l-14.4-2c1.1-4,3-7.3,5.6-10,2.6-2.7,5.8-4.7,9.6-6,3.8-1.3,7.9-2,12.5-2s6.3.4,9.4,1.1c3.1.7,6,1.9,8.5,3.6,2.6,1.7,4.7,4,6.2,6.9,1.6,2.9,2.4,6.5,2.4,10.8v43.7h-14.8v-9h-.5c-.9,1.8-2.2,3.5-3.9,5.1-1.7,1.6-3.8,2.8-6.3,3.8-2.5.9-5.5,1.4-8.9,1.4ZM473.8,92.6c3.1,0,5.8-.6,8-1.8,2.3-1.2,4-2.9,5.2-4.9s1.9-4.3,1.9-6.7v-7.7c-.5.4-1.3.8-2.4,1.1-1.1.3-2.4.6-3.8.9-1.4.3-2.8.5-4.2.7-1.4.2-2.6.4-3.6.5-2.3.3-4.3.8-6.2,1.5-1.8.7-3.2,1.7-4.3,3-1,1.3-1.6,2.9-1.6,4.9,0,2.8,1,5,3.1,6.4s4.7,2.2,7.9,2.2Z"/>
  <path fill="#dbeafe" stroke-width="0" d="M552.8,37.3v11.9h-38.6v-11.9h38.6ZM523.9,102.6V31.1c0-4.4.9-8,2.7-11,1.8-2.9,4.3-5.1,7.4-6.5,3.1-1.4,6.5-2.2,10.3-2.2s5,.2,7.1.6c2.1.4,3.6.8,4.6,1.1l-3.1,11.9c-.7-.2-1.5-.4-2.5-.6-1-.2-2.1-.3-3.3-.3-2.9,0-4.9.7-6.1,2.1s-1.8,3.3-1.8,5.9v70.4h-15.4Z"/>
  <path fill="#dbeafe" stroke-width="0" d="M597.5,37.3v11.9h-37.5v-11.9h37.5ZM569.2,21.6h15.4v61.3c0,2.1.3,3.6,1,4.7s1.5,1.8,2.5,2.2c1,.4,2.2.6,3.5.6s1.8,0,2.7-.2c.8-.1,1.4-.3,1.8-.4l2.6,12c-.8.3-2,.6-3.5.9-1.5.3-3.4.5-5.5.6-3.9.1-7.3-.5-10.4-1.8-3.1-1.3-5.5-3.3-7.3-6s-2.7-6.1-2.7-10.2V21.6Z"/>
</svg>